<svg xmlns="http://www.w3.org/2000/svg" width="44" height="44" viewBox="0 0 44 44">
  <path id="Icon_awesome-linkedin" data-name="Icon awesome-linkedin" d="M40.857,2.25H3.133A3.156,3.156,0,0,0,0,5.422V43.078A3.156,3.156,0,0,0,3.133,46.25H40.857A3.165,3.165,0,0,0,44,43.078V5.422A3.165,3.165,0,0,0,40.857,2.25ZM13.3,39.964H6.777v-21h6.531v21ZM10.038,16.1a3.781,3.781,0,1,1,3.781-3.781A3.783,3.783,0,0,1,10.038,16.1ZM37.744,39.964H31.222V29.75c0-2.436-.049-5.569-3.388-5.569-3.4,0-3.919,2.652-3.919,5.392V39.964H17.394v-21H23.65v2.868h.088a6.869,6.869,0,0,1,6.178-3.388c6.6,0,7.828,4.351,7.828,10.008Z" transform="translate(0 -2.25)" fill="#fff"/>
</svg>
