<svg width="58" height="49" viewBox="0 0 58 49" fill="none" xmlns="http://www.w3.org/2000/svg">
<g clip-path="url(#clip0)">
<path d="M44.0742 42.5625C44.0742 42.7773 44.0254 42.9824 43.9277 43.1777C43.5371 43.3926 43.127 43.5391 42.6973 43.6172C42.2871 43.7148 41.877 43.7637 41.4668 43.7637C41.2715 43.7637 41.0566 43.7539 40.8223 43.7344C40.6074 43.7344 40.4121 43.7148 40.2363 43.6758C40.1777 43.6562 40.1094 43.6172 40.0312 43.5586C39.9531 43.5 39.875 43.4707 39.7969 43.4707C39.6016 43.4707 39.416 43.5 39.2402 43.5586C39.0645 43.6367 38.8789 43.6758 38.6836 43.6758C38.5859 43.6758 38.4883 43.6465 38.3906 43.5879C38.3125 43.5293 38.2246 43.4902 38.127 43.4707C37.9902 43.4316 37.8535 43.4219 37.7168 43.4414C37.5801 43.4609 37.4336 43.4707 37.2773 43.4707C37.0625 43.4707 36.8672 43.4414 36.6914 43.3828C36.5352 43.3242 36.3887 43.2168 36.252 43.0605C35.7637 43.002 35.2852 42.9043 34.8164 42.7676C34.3477 42.6504 33.8789 42.5137 33.4102 42.3574C32.9414 42.2207 32.4727 42.084 32.0039 41.9473C31.5352 41.8301 31.0566 41.752 30.5684 41.7129C30.4512 41.5762 30.3145 41.4688 30.1582 41.3906C30.002 41.332 29.8848 41.2246 29.8066 41.0684C29.709 41.0684 29.6406 41.0781 29.6016 41.0977C29.5625 41.1367 29.4941 41.1562 29.3965 41.1562C29.0645 40.8828 28.7031 40.6484 28.3125 40.4531C27.9414 40.2578 27.5508 40.0723 27.1406 39.8965C26.75 39.7207 26.3594 39.5352 25.9688 39.3398C25.5977 39.1641 25.2461 38.9297 24.9141 38.6367H24.7676C24.6113 38.6562 24.4746 38.6172 24.3574 38.5195C24.2598 38.4414 24.1328 38.4023 23.9766 38.4023C23.8789 38.4023 23.8008 38.4121 23.7422 38.4316C23.6836 38.2754 23.5957 38.1484 23.4785 38.0508C23.3613 37.9531 23.2344 37.8555 23.0977 37.7578C22.9805 37.6797 22.8633 37.5918 22.7461 37.4941C22.6289 37.416 22.541 37.3086 22.4824 37.1719C21.9941 36.9961 21.5156 36.7812 21.0469 36.5273C20.5977 36.293 20.1973 35.9805 19.8457 35.5898C19.4551 35.5508 19.1328 35.4336 18.8789 35.2383C18.625 35.0234 18.3906 34.7598 18.1758 34.4473C17.707 34.291 17.2773 34.0859 16.8867 33.832C16.4961 33.5781 16.1055 33.3145 15.7148 33.041C15.3438 32.7676 14.9434 32.5234 14.5137 32.3086C14.1035 32.0742 13.6348 31.9082 13.1074 31.8105C13.0879 31.6738 13.0293 31.5762 12.9316 31.5176C12.834 31.4395 12.7168 31.3809 12.5801 31.3418C12.4629 31.2832 12.3457 31.2344 12.2285 31.1953C12.1113 31.1562 12.0234 31.0781 11.9648 30.9609C11.9062 30.9609 11.8477 30.9609 11.7891 30.9609C11.7305 30.9414 11.6719 30.9316 11.6133 30.9316C11.5547 30.9316 11.4863 30.9414 11.4082 30.9609C11.3496 30.9609 11.291 30.9609 11.2324 30.9609L11.2617 30.873C11.2617 30.7949 11.2324 30.7461 11.1738 30.7266C11.1348 30.707 11.0762 30.6875 10.998 30.668C10.9199 30.6484 10.8516 30.6191 10.793 30.5801C10.7344 30.541 10.7051 30.4531 10.7051 30.3164H10.6172C10.4023 30.3164 10.207 30.2773 10.0312 30.1992C9.85547 30.1211 9.66016 30.0625 9.44531 30.0234C9.40625 30.2383 9.38672 30.4434 9.38672 30.6387V31.166C9.38672 32.0449 9.48438 32.9727 9.67969 33.9492C9.875 34.9062 10.1777 35.7656 10.5879 36.5273C10.998 36.6836 11.3496 36.8887 11.6426 37.1426C11.9355 37.3965 12.2188 37.6895 12.4922 38.0215C12.5117 38.5488 12.3164 38.9883 11.9062 39.3398C11.5156 39.7109 11.0566 39.8965 10.5293 39.8965C10.2363 39.8965 9.96289 39.8184 9.70898 39.6621C9.47461 39.5254 9.2793 39.3203 9.12305 39.0469C9.00586 39.0469 8.89844 39.0664 8.80078 39.1055C8.70312 39.1641 8.58594 39.1934 8.44922 39.1934C8.39062 39.1934 8.33203 39.1836 8.27344 39.1641C8.07812 38.832 7.88281 38.5391 7.6875 38.2852C7.51172 38.0312 7.39453 37.6895 7.33594 37.2598C7.12109 37.1621 6.98438 36.9863 6.92578 36.7324C6.88672 36.4785 6.7793 36.2734 6.60352 36.1172C6.52539 35.2383 6.41797 34.3594 6.28125 33.4805C6.16406 32.6016 6.10547 31.7227 6.10547 30.8438C6.10547 30.6484 6.11523 30.4531 6.13477 30.2578C6.1543 30.043 6.17383 29.8281 6.19336 29.6133C6.1543 29.5156 6.0957 29.4277 6.01758 29.3496C5.95898 29.252 5.91016 29.1543 5.87109 29.0566C5.48047 29.1543 5.07031 29.252 4.64062 29.3496C4.23047 29.4277 3.81055 29.4668 3.38086 29.4668C3.10742 29.4668 2.77539 29.4277 2.38477 29.3496C1.99414 29.252 1.69141 29.125 1.47656 28.9688C1.32031 28.8711 1.21289 28.6953 1.1543 28.4414C1.07617 28.168 1.03711 27.9336 1.03711 27.7383C1.03711 27.4062 1.0957 27.0742 1.21289 26.7422C1.33008 26.3906 1.48633 26.0879 1.68164 25.834C2.63867 25.4434 3.52734 24.9648 4.34766 24.3984C5.1875 23.832 6.00781 23.2168 6.80859 22.5527C6.82812 22.3574 6.85742 22.1621 6.89648 21.9668C6.95508 21.7715 6.98438 21.5664 6.98438 21.3516C6.98438 21.1172 6.92578 20.8926 6.80859 20.6777C6.92578 20.5605 6.98438 20.4141 6.98438 20.2383C6.98438 20.043 7.0332 19.8672 7.13086 19.7109V19.5352C7.13086 19.457 7.12109 19.3789 7.10156 19.3008C7.10156 19.2227 7.07227 19.1445 7.01367 19.0664C7.15039 18.3047 7.25781 17.5527 7.33594 16.8105C7.41406 16.0488 7.45312 15.2676 7.45312 14.4668C7.45312 14.4082 7.48242 14.252 7.54102 13.998C7.61914 13.7246 7.66797 13.5391 7.6875 13.4414C7.76562 12.9922 7.81445 12.5527 7.83398 12.123C7.87305 11.6738 7.92188 11.2246 7.98047 10.7754C8 10.6191 8.03906 10.4141 8.09766 10.1602C8.15625 9.90625 8.18555 9.73047 8.18555 9.63281C8.18555 9.49609 8.15625 9.4082 8.09766 9.36914C8.05859 9.31055 8.01953 9.22266 7.98047 9.10547C8.09766 8.65625 8.15625 8.20703 8.15625 7.75781C8.17578 7.28906 8.21484 6.83008 8.27344 6.38086C8.60547 6.24414 8.86914 6.10742 9.06445 5.9707C9.25977 5.83398 9.54297 5.76562 9.91406 5.76562H9.97266C10.0117 6 10.0996 6.22461 10.2363 6.43945C10.373 6.63477 10.5098 6.83984 10.6465 7.05469C10.8027 7.25 10.9395 7.44531 11.0566 7.64062C11.1738 7.81641 11.2324 7.99219 11.2324 8.16797C11.2324 8.5 11.2031 8.86133 11.1445 9.25195C11.0859 9.64258 11.0371 10.0039 10.998 10.3359C10.9004 11.2148 10.8125 12.084 10.7344 12.9434C10.6562 13.7832 10.5391 14.6426 10.3828 15.5215C10.4414 15.7949 10.4707 16.0488 10.4707 16.2832C10.4707 16.6348 10.4414 16.9863 10.3828 17.3379C10.3242 17.6895 10.2949 18.0508 10.2949 18.4219C10.2949 18.5977 10.3047 18.7832 10.3242 18.9785C10.3633 19.1738 10.4219 19.3496 10.5 19.5059C11.1641 19.3301 11.7598 18.9688 12.2871 18.4219C12.3652 18.3438 12.4434 18.2461 12.5215 18.1289C12.6191 17.9922 12.7168 17.8848 12.8145 17.8066C13.0098 17.6504 13.2148 17.5137 13.4297 17.3965C13.6641 17.2598 13.8887 17.123 14.1035 16.9863C14.6113 16.6543 15.0996 16.3125 15.5684 15.9609C16.0566 15.5898 16.5449 15.2285 17.0332 14.877C18.4785 13.8223 19.875 12.7285 21.2227 11.5957C22.5898 10.4434 23.918 9.23242 25.207 7.96289C25.2656 7.63086 25.3828 7.36719 25.5586 7.17188C25.7344 6.97656 25.8906 6.74219 26.0273 6.46875C26.3984 6.33203 26.7207 6.12695 26.9941 5.85352C27.1113 5.89258 27.2285 5.92187 27.3457 5.94141C27.4824 5.94141 27.6094 5.94141 27.7266 5.94141C27.8633 5.94141 27.9902 5.95117 28.1074 5.9707C28.2441 5.9707 28.3613 6 28.459 6.05859C28.4785 6.35156 28.5078 6.61523 28.5469 6.84961C28.5859 7.08398 28.7031 7.30859 28.8984 7.52344C28.8984 7.5625 28.8984 7.60156 28.8984 7.64062C28.918 7.67969 28.9277 7.71875 28.9277 7.75781C28.9277 7.97266 28.8691 8.14844 28.752 8.28516C28.6348 8.42188 28.5664 8.58789 28.5469 8.7832L27.0234 10.3066C26.5156 10.8145 26.0469 11.3613 25.6172 11.9473C25.4609 11.9668 25.3242 12.0156 25.207 12.0938C25.0898 12.1719 24.9727 12.2598 24.8555 12.3574C24.7578 12.4355 24.6504 12.5137 24.5332 12.5918C24.416 12.6699 24.2891 12.7285 24.1523 12.7676C23.8008 13.2363 23.4004 13.666 22.9512 14.0566C22.502 14.4277 22.043 14.7891 21.5742 15.1406C21.1055 15.4922 20.6367 15.8535 20.168 16.2246C19.7188 16.5762 19.2988 16.9668 18.9082 17.3965C18.498 17.5918 18.0977 17.8262 17.707 18.0996C17.3359 18.3535 17.0332 18.6758 16.7988 19.0664H16.6523C16.5547 19.0664 16.4766 19.0957 16.418 19.1543C16.3594 19.1934 16.2812 19.2129 16.1836 19.2129C15.1289 20.1309 14.0352 21 12.9023 21.8203C11.7695 22.6211 10.6855 23.5 9.65039 24.457V25.1895C9.98242 25.3848 10.3438 25.5703 10.7344 25.7461C11.125 25.9023 11.5059 26.0781 11.877 26.2734C12.2676 26.4688 12.6289 26.6836 12.9609 26.918C13.3125 27.1328 13.6152 27.3965 13.8691 27.709C13.9082 27.6895 13.957 27.6797 14.0156 27.6797C14.1914 27.6797 14.3281 27.7383 14.4258 27.8555C14.5234 27.9531 14.6895 27.9824 14.9238 27.9434C15.002 28.2559 15.1777 28.4805 15.4512 28.6172C15.7246 28.7539 15.998 28.8711 16.2715 28.9688C16.5059 29.2031 16.7207 29.4277 16.916 29.6426C17.1113 29.8379 17.3945 29.9648 17.7656 30.0234C17.8047 30.1016 17.834 30.1895 17.8535 30.2871C17.873 30.3848 17.9121 30.4727 17.9707 30.5508C18.3418 30.668 18.6934 30.834 19.0254 31.0488C19.377 31.2637 19.7188 31.4883 20.0508 31.7227C20.3828 31.9375 20.7148 32.1523 21.0469 32.3672C21.3984 32.5625 21.7695 32.7188 22.1602 32.8359C22.2188 33.0312 22.3262 33.168 22.4824 33.2461C22.6582 33.3242 22.7949 33.4414 22.8926 33.5977H23.4199C23.4785 33.6953 23.5566 33.793 23.6543 33.8906C23.752 33.9688 23.8203 34.0859 23.8594 34.2422C24.0156 34.2812 24.1914 34.3398 24.3867 34.418C24.582 34.4766 24.7578 34.5547 24.9141 34.6523C24.9727 34.7109 25.0117 34.7793 25.0312 34.8574C25.0703 34.9355 25.1289 35.0039 25.207 35.0625C25.3242 35.1602 25.5 35.2383 25.7344 35.2969C25.9883 35.3359 26.2031 35.4043 26.3789 35.502C26.7305 35.6973 27.0723 35.9121 27.4043 36.1465C27.7363 36.4004 28.0879 36.6348 28.459 36.8496L29.6016 37.4648C29.7969 37.5625 29.9727 37.6699 30.1289 37.7871C30.3047 37.9043 30.4805 38.0117 30.6562 38.1094C31.0078 38.2656 31.3789 38.3633 31.7695 38.4023C32.1797 38.4609 32.5508 38.5684 32.8828 38.7246C32.9805 38.7832 33.0488 38.8516 33.0879 38.9297C33.127 39.0273 33.1953 39.1055 33.293 39.1641C33.4492 39.2617 33.6934 39.3301 34.0254 39.3691C34.3574 39.4082 34.6309 39.4766 34.8457 39.5742C35.1191 39.6914 35.3828 39.7988 35.6367 39.8965C35.9102 40.0137 36.1836 40.1504 36.457 40.3066C37.043 40.3457 37.6191 40.4141 38.1855 40.5117C38.7715 40.6094 39.3477 40.707 39.9141 40.8047C40.4805 40.9023 41.0469 40.9902 41.6133 41.0684C42.1992 41.1465 42.7852 41.1758 43.3711 41.1562C43.3711 41.1953 43.3906 41.2148 43.4297 41.2148C43.4883 41.2344 43.5371 41.2441 43.5762 41.2441C43.7129 41.459 43.8301 41.6738 43.9277 41.8887C44.0254 42.1035 44.0742 42.3281 44.0742 42.5625ZM30.1875 32.1914C30.1875 32.4844 30.1289 32.7676 30.0117 33.041C29.9141 33.2949 29.7969 33.5488 29.6602 33.8027L29.25 34.5645C29.1133 34.8184 29.0059 35.082 28.9277 35.3555L28.8105 35.3262C28.5371 35.3262 28.2734 35.3652 28.0195 35.4434C27.7656 35.502 27.5117 35.5703 27.2578 35.6484C27.0039 35.7266 26.7402 35.8047 26.4668 35.8828C26.2129 35.9609 25.9492 36 25.6758 36C25.6367 35.7266 25.5586 35.4824 25.4414 35.2676C25.3047 35.0527 25.0703 34.9453 24.7383 34.9453C24.6797 34.7891 24.6504 34.623 24.6504 34.4473C24.6309 34.2715 24.6211 34.1055 24.6211 33.9492C24.6211 33.7734 24.6113 33.6074 24.5918 33.4512C24.5527 33.2754 24.4941 33.1094 24.416 32.9531C24.7676 32.6797 25.0605 32.3574 25.2949 31.9863C25.5293 31.5957 25.793 31.2441 26.0859 30.9316C26.3203 30.9902 26.5645 31.0195 26.8184 31.0195C27.1113 31.0195 27.4043 30.9902 27.6973 30.9316C27.9902 30.8535 28.2832 30.8145 28.5762 30.8145C28.8887 30.8145 29.1816 30.8926 29.4551 31.0488C29.5137 31.1465 29.5527 31.2539 29.5723 31.3711C29.5918 31.4883 29.6211 31.6055 29.6602 31.7227C29.7188 31.8203 29.7773 31.9082 29.8359 31.9863C29.9141 32.0645 30.0312 32.1035 30.1875 32.1035V32.1914ZM57.2578 34.916C57.2578 35.1113 57.248 35.2578 57.2285 35.3555C57.1309 35.3945 57.0527 35.4531 56.9941 35.5312C56.9355 35.5898 56.8379 35.6094 56.7012 35.5898C56.6621 35.8828 56.5645 36.127 56.4082 36.3223C56.252 36.5176 56.0859 36.6934 55.9102 36.8496C55.7539 37.0254 55.5977 37.2012 55.4414 37.377C55.2852 37.5723 55.1875 37.8164 55.1484 38.1094C54.8555 38.2656 54.5625 38.4707 54.2695 38.7246C53.9961 38.998 53.752 39.1836 53.5371 39.2812C53.3809 39.3594 53.2148 39.418 53.0391 39.457C52.8633 39.5156 52.6875 39.584 52.5117 39.6621C51.9453 39.916 51.3594 40.1797 50.7539 40.4531C50.168 40.7266 49.5527 40.8633 48.9082 40.8633H48.7031C48.625 40.9414 48.5273 40.9902 48.4102 41.0098C48.293 41.0488 48.1758 41.0781 48.0586 41.0977C47.9414 41.1172 47.8242 41.1465 47.707 41.1855C47.5898 41.2246 47.502 41.2832 47.4434 41.3613C47.2285 41.2832 46.9941 41.2441 46.7402 41.2441H46.5352C46.2031 41.3223 45.8906 41.3809 45.5977 41.4199C45.3047 41.459 44.9922 41.4785 44.6602 41.4785C44.0742 41.4785 43.4883 41.4395 42.9023 41.3613C42.3164 41.2832 41.7305 41.2148 41.1445 41.1562C40.7734 40.8633 40.4707 40.4922 40.2363 40.043C40.002 39.6133 39.8848 39.1543 39.8848 38.666C39.8848 38.2949 39.9629 37.9434 40.1191 37.6113C40.2754 37.2988 40.4805 37.0156 40.7344 36.7617H40.8223C40.998 36.7617 41.1738 36.7227 41.3496 36.6445C41.5449 36.5664 41.7305 36.5273 41.9062 36.5273C42.1016 36.5273 42.2578 36.6055 42.375 36.7617C42.5117 36.918 42.6094 37.1035 42.668 37.3184C42.7461 37.5332 42.7949 37.748 42.8145 37.9629C42.834 38.1973 42.8438 38.3828 42.8438 38.5195C43.0586 38.6172 43.2832 38.6758 43.5176 38.6953C43.7715 38.7148 44.0254 38.7246 44.2793 38.7246C44.5332 38.7246 44.8164 38.7051 45.1289 38.666C45.4414 38.6465 45.7539 38.5977 46.0664 38.5195C46.3984 38.4609 46.7109 38.3828 47.0039 38.2852C47.3164 38.1875 47.5801 38.0605 47.7949 37.9043C48.8691 37.8066 49.8164 37.5625 50.6367 37.1719C51.457 36.7812 52.3262 36.3223 53.2441 35.7949C53.2832 35.5801 53.3613 35.4141 53.4785 35.2969C53.6152 35.1602 53.6836 34.9648 53.6836 34.7109C53.6836 34.6719 53.6738 34.6328 53.6543 34.5938C53.6543 34.5352 53.6543 34.4863 53.6543 34.4473C53.2637 33.959 52.8535 33.5293 52.4238 33.1582C52.0137 32.7871 51.4766 32.543 50.8125 32.4258C50.7344 32.25 50.6074 32.123 50.4316 32.0449C50.2559 31.9473 50.0703 31.8594 49.875 31.7812C49.6797 31.7031 49.4941 31.625 49.3184 31.5469C49.1426 31.4492 49.0156 31.293 48.9375 31.0781C48.4102 30.9805 47.8633 30.8633 47.2969 30.7266C46.75 30.5703 46.2812 30.2969 45.8906 29.9062C45.5781 29.8867 45.2754 29.8281 44.9824 29.7305C44.709 29.6133 44.4355 29.5059 44.1621 29.4082C43.8887 29.291 43.6055 29.1934 43.3125 29.1152C43.0195 29.0176 42.7168 28.9688 42.4043 28.9688C42.3262 28.832 42.2188 28.7246 42.082 28.6465C41.9453 28.5684 41.7891 28.5 41.6133 28.4414C41.457 28.3828 41.3008 28.3242 41.1445 28.2656C41.0078 28.1875 40.9004 28.0801 40.8223 27.9434C40.7441 27.9629 40.6855 28.002 40.6465 28.0605C40.6074 28.1191 40.5391 28.1484 40.4414 28.1484H40.3242C40.2852 28.0312 40.207 27.9531 40.0898 27.9141C39.9727 27.8555 39.9043 27.748 39.8848 27.5918C39.5332 27.5723 39.2109 27.5039 38.918 27.3867C38.6445 27.2695 38.3809 27.1426 38.127 27.0059C37.8926 26.8496 37.6484 26.7031 37.3945 26.5664C37.1406 26.4297 36.8574 26.3223 36.5449 26.2441C36.3496 26.0879 36.1641 25.9219 35.9883 25.7461C35.832 25.5508 35.627 25.4531 35.373 25.4531C35.3145 25.4531 35.207 25.4727 35.0508 25.5117C35.0117 25.1602 34.8652 24.916 34.6113 24.7793C34.3574 24.623 34.084 24.4863 33.791 24.3691C33.5957 23.8613 33.332 23.4121 33 23.0215C32.668 22.6309 32.3066 22.2695 31.916 21.9375C31.9551 21.8203 31.9746 21.7324 31.9746 21.6738C31.9746 21.4785 31.9258 21.3125 31.8281 21.1758C31.7305 21.0195 31.623 20.8926 31.5059 20.7949C31.2324 19.916 31.0957 19.0566 31.0957 18.2168C31.0957 17.0449 31.3594 15.9609 31.8867 14.9648C32.3945 13.9492 33.2051 13.1875 34.3184 12.6797C34.3379 12.5234 34.3867 12.3867 34.4648 12.2695C34.5625 12.1523 34.6211 12.0156 34.6406 11.8594C34.8164 11.8594 34.9531 11.8203 35.0508 11.7422C35.1484 11.6641 35.2363 11.5859 35.3145 11.5078C35.4121 11.4102 35.5098 11.3223 35.6074 11.2441C35.7051 11.166 35.832 11.1172 35.9883 11.0977C36.7305 10.4531 37.5215 9.93555 38.3613 9.54492C39.2012 9.13477 40.0605 8.71484 40.9395 8.28516C41.1152 8.20703 41.2617 8.06055 41.3789 7.8457H41.5547C41.75 7.8457 41.8965 7.80664 41.9941 7.72852C42.1113 7.63086 42.2773 7.60156 42.4922 7.64062C42.5703 7.52344 42.668 7.44531 42.7852 7.40625C42.9219 7.36719 43.0488 7.33789 43.166 7.31836C43.3027 7.2793 43.4297 7.23047 43.5469 7.17188C43.6641 7.11328 43.7422 7.02539 43.7812 6.9082H43.9863C44.3184 6.9082 44.6406 6.85938 44.9531 6.76172C45.2656 6.64453 45.5781 6.51758 45.8906 6.38086H46.0957C46.4863 6.38086 46.8477 6.3125 47.1797 6.17578C47.5312 6.01953 47.9023 5.91211 48.293 5.85352C48.4492 5.81445 48.6055 5.80469 48.7617 5.82422C48.918 5.84375 49.0742 5.85352 49.2305 5.85352C49.3281 5.85352 49.4453 5.84375 49.582 5.82422C49.7188 5.80469 49.8164 5.74609 49.875 5.64844H49.9336C50.0508 5.64844 50.1191 5.6875 50.1387 5.76562C50.1582 5.84375 50.2168 5.88281 50.3145 5.88281C50.4512 5.88281 50.5879 5.86328 50.7246 5.82422C50.8613 5.78516 50.998 5.76562 51.1348 5.76562C51.7207 5.76562 52.2969 5.82422 52.8633 5.94141C53.4492 6.05859 54.0254 6.16602 54.5918 6.26367C54.6309 6.49805 54.7285 6.66406 54.8848 6.76172C55.0605 6.85938 55.2461 6.94727 55.4414 7.02539V7.14258C55.4414 7.29883 55.4805 7.42578 55.5586 7.52344C55.4805 7.79688 55.3438 8.00195 55.1484 8.13867C54.9531 8.27539 54.7383 8.39258 54.5039 8.49023C54.6016 8.56836 54.6602 8.67578 54.6797 8.8125C54.6992 8.94922 54.709 9.07617 54.709 9.19336V9.54492L54.5625 9.51562C54.25 9.51562 54.0938 9.66211 54.0938 9.95508C53.8398 9.79883 53.5566 9.70117 53.2441 9.66211C52.9512 9.62305 52.6582 9.60352 52.3652 9.60352C51.9746 9.60352 51.5645 9.62305 51.1348 9.66211C50.7051 9.68164 50.2852 9.67188 49.875 9.63281C49.7188 9.82812 49.5234 9.97461 49.2891 10.0723C49.0547 10.1504 48.8203 10.1895 48.5859 10.1895C48.332 10.1895 48.0879 10.1406 47.8535 10.043C47.6191 9.92578 47.4531 9.75977 47.3555 9.54492C47.2578 9.50586 47.1699 9.48633 47.0918 9.48633H46.8281C46.5156 9.48633 46.2031 9.52539 45.8906 9.60352C45.5977 9.66211 45.2949 9.74023 44.9824 9.83789C44.6699 9.91602 44.3574 10.0039 44.0449 10.1016C43.752 10.1797 43.4492 10.2285 43.1367 10.248C43.0195 10.4043 42.8633 10.5117 42.668 10.5703C42.4727 10.6289 42.3164 10.7363 42.1992 10.8926C41.7891 10.9707 41.418 11.1074 41.0859 11.3027C40.7539 11.4785 40.4316 11.6738 40.1191 11.8887L39.2109 12.5039C38.918 12.6992 38.5859 12.8652 38.2148 13.002C37.9414 13.2949 37.6875 13.5293 37.4531 13.7051C37.2188 13.8809 36.916 14.0371 36.5449 14.1738C36.3105 14.252 36.1738 14.3691 36.1348 14.5254C36.1152 14.6816 36.0371 14.8379 35.9004 14.9941C35.7832 15.1309 35.6367 15.2383 35.4609 15.3164C35.3047 15.375 35.168 15.4824 35.0508 15.6387C34.9531 15.7754 34.875 15.9414 34.8164 16.1367C34.7773 16.3125 34.7285 16.4883 34.6699 16.6641C34.6113 16.8398 34.543 17.0156 34.4648 17.1914C34.3867 17.3477 34.2695 17.4844 34.1133 17.6016C34.1133 17.6797 34.1035 17.7578 34.084 17.8359C34.084 17.9141 34.084 17.9824 34.084 18.041C34.084 18.3145 34.1133 18.5977 34.1719 18.8906C34.25 19.1641 34.2988 19.4375 34.3184 19.7109C34.709 20.3945 35.168 21.0195 35.6953 21.5859C36.2227 22.1328 36.7891 22.6406 37.3945 23.1094C38 23.5781 38.625 24.0176 39.2695 24.4277C39.9336 24.8379 40.5879 25.2383 41.2324 25.6289C41.4668 25.6094 41.6816 25.6387 41.877 25.7168C42.0723 25.7754 42.2773 25.8145 42.4922 25.834C42.7266 26.0098 43 26.1465 43.3125 26.2441L44.25 26.5371C44.5625 26.6348 44.8652 26.752 45.1582 26.8887C45.4512 27.0059 45.6953 27.1719 45.8906 27.3867C45.9883 27.4062 46.0762 27.4355 46.1543 27.4746C46.2324 27.4941 46.3203 27.5039 46.418 27.5039C46.5352 27.5039 46.6035 27.4648 46.623 27.3867C47.502 27.7188 48.3613 28.0898 49.2012 28.5C50.041 28.8906 50.9297 29.1934 51.8672 29.4082C52.2383 29.7207 52.6484 29.9941 53.0977 30.2285C53.5469 30.4629 53.9961 30.707 54.4453 30.9609C54.8945 31.1953 55.3242 31.459 55.7344 31.752C56.1445 32.0254 56.5059 32.3574 56.8184 32.748C56.8574 33.1191 56.9355 33.4805 57.0527 33.832C57.1895 34.1641 57.2578 34.5254 57.2578 34.916Z" fill="white"/>
</g>
<defs>
<clipPath id="clip0">
<rect width="58" height="49" fill="white"/>
</clipPath>
</defs>
</svg>
